HIERARCHY
ROOT hip
{
  OFFSET 0 0 0
  CHANNELS 6 Xposition Yposition Zposition Zrotation Yrotation Xrotation
  JOINT abdomen
  {
    OFFSET 0 20.6881 -0.73152
    CHANNELS 3 Zrotation Xrotation Yrotation
    JOINT chest
    {
      OFFSET 0 11.7043 -0.48768
      CHANNELS 3 Zrotation Xrotation Yrotation
      JOINT neck
      {
        OFFSET 0 22.1894 -2.19456
        CHANNELS 3 Zrotation Xrotation Yrotation
        JOINT head
        {
          OFFSET -0.24384 7.07133 1.2192
          CHANNELS 3 Zrotation Xrotation Yrotation
          JOINT leftEye
          {
            OFFSET 4.14528 8.04674 8.04672
            CHANNELS 3 Zrotation Xrotation Yrotation
            End Site
            {
              OFFSET 1 0 0
            }
          }
          JOINT rightEye
          {
            OFFSET -3.6576 8.04674 8.04672
            CHANNELS 3 Zrotation Xrotation Yrotation
            End Site
            {
              OFFSET 1 0 0
            }
          }
        }
      }
      JOINT rCollar
      {
        OFFSET -2.68224 19.2634 -4.8768
        CHANNELS 3 Zrotation Xrotation Yrotation
        JOINT rShldr
        {
          OFFSET -8.77824 -1.95073 1.46304
          CHANNELS 3 Zrotation Xrotation Yrotation
          JOINT rForeArm
          {
            OFFSET -28.1742 -1.7115 0.48768
            CHANNELS 3 Zrotation Xrotation Yrotation
            JOINT rHand
            {
              OFFSET -22.5879 0.773209 7.07136
              CHANNELS 3 Zrotation Xrotation Yrotation
              JOINT rThumb1
              {
                OFFSET -1.2192 -0.487915 3.41376
                CHANNELS 3 Zrotation Xrotation Yrotation
                JOINT rThumb2
                {
                  OFFSET -3.37035 -0.52449 3.41376
                  CHANNELS 3 Zrotation Xrotation Yrotation
                  End Site
                  {
                    OFFSET -1.78271 -1.18214 1.43049
                  }
                }
              }
              JOINT rIndex1
              {
                OFFSET -7.75947 0.938293 5.60832
                CHANNELS 3 Zrotation Xrotation Yrotation
                JOINT rIndex2
                {
                  OFFSET -2.54057 -0.884171 1.56538
                  CHANNELS 3 Zrotation Xrotation Yrotation
                  End Site
                  {
                    OFFSET -1.62519 -0.234802 1.16502
                  }
                }
              }
              JOINT rMid1
              {
                OFFSET -8.24714 1.18213 3.41376
                CHANNELS 3 Zrotation Xrotation Yrotation
                JOINT rMid2
                {
                  OFFSET -3.10165 -0.590103 1.0647
                  CHANNELS 3 Zrotation Xrotation Yrotation
                  End Site
                  {
                    OFFSET -2.48547 -0.328903 0.83742
                  }
                }
              }
              JOINT rRing1
              {
                OFFSET -8.82822 0.546677 1.51678
                CHANNELS 3 Zrotation Xrotation Yrotation
                JOINT rRing2
                {
                  OFFSET -2.60934 -0.819778 -0.0198488
                  CHANNELS 3 Zrotation Xrotation Yrotation
                  End Site
                  {
                    OFFSET -2.33842 -0.294052 0.168128
                  }
                }
              }
              JOINT rPinky1
              {
                OFFSET -8.27202 -0.0477905 -0.4584
                CHANNELS 3 Zrotation Xrotation Yrotation
                JOINT rPinky2
                {
                  OFFSET -1.82734 -0.647385 -0.700984
                  CHANNELS 3 Zrotation Xrotation Yrotation
                  End Site
                  {
                    OFFSET -1.69225 -0.51767 -0.607171
                  }
                }
              }
            }
          }
        }
      }
      JOINT lCollar
      {
        OFFSET 2.68224 19.2634 -4.8768
        CHANNELS 3 Zrotation Xrotation Yrotation
        JOINT lShldr
        {
          OFFSET 8.77824 -1.95073 1.46304
          CHANNELS 3 Zrotation Xrotation Yrotation
          JOINT lForeArm
          {
            OFFSET 28.1742 -1.7115 0.48768
            CHANNELS 3 Zrotation Xrotation Yrotation
            JOINT lHand
            {
              OFFSET 22.5879 0.773209 7.07136
              CHANNELS 3 Zrotation Xrotation Yrotation
              JOINT lThumb1
              {
                OFFSET 1.2192 -0.487915 3.41376
                CHANNELS 3 Zrotation Xrotation Yrotation
                JOINT lThumb2
                {
                  OFFSET 3.37035 -0.52449 3.41376
                  CHANNELS 3 Zrotation Xrotation Yrotation
                  End Site
                  {
                    OFFSET 1.78271 -1.18214 1.43049
                  }
                }
              }
              JOINT lIndex1
              {
                OFFSET 7.75947 0.938293 5.60832
                CHANNELS 3 Zrotation Xrotation Yrotation
                JOINT lIndex2
                {
                  OFFSET 2.54057 -0.884171 1.56538
                  CHANNELS 3 Zrotation Xrotation Yrotation
                  End Site
                  {
                    OFFSET 1.62519 -0.234802 1.16502
                  }
                }
              }
              JOINT lMid1
              {
                OFFSET 8.24714 1.18213 3.41376
                CHANNELS 3 Zrotation Xrotation Yrotation
                JOINT lMid2
                {
                  OFFSET 3.10165 -0.590103 1.0647
                  CHANNELS 3 Zrotation Xrotation Yrotation
                  End Site
                  {
                    OFFSET 2.48547 -0.328903 0.83742
                  }
                }
              }
              JOINT lRing1
              {
                OFFSET 8.82822 0.546677 1.51678
                CHANNELS 3 Zrotation Xrotation Yrotation
                JOINT lRing2
                {
                  OFFSET 2.60934 -0.819778 -0.0198488
                  CHANNELS 3 Zrotation Xrotation Yrotation
                  End Site
                  {
                    OFFSET 2.33842 -0.294052 0.168128
                  }
                }
              }
              JOINT lPinky1
              {
                OFFSET 8.27202 -0.0477905 -0.4584
                CHANNELS 3 Zrotation Xrotation Yrotation
                JOINT lPinky2
                {
                  OFFSET 1.82734 -0.647385 -0.700984
                  CHANNELS 3 Zrotation Xrotation Yrotation
                  End Site
                  {
                    OFFSET 1.69225 -0.51767 -0.607171
                  }
                }
              }
            }
          }
        }
      }
    }
  }
  JOINT rButtock
  {
    OFFSET -8.77824 4.35084 1.2192
    CHANNELS 3 Zrotation Xrotation Yrotation
    JOINT rThigh
    {
      OFFSET 0 -1.70687 -2.19456
      CHANNELS 3 Zrotation Xrotation Yrotation
      JOINT rShin
      {
        OFFSET 0 -36.8199 0.73152
        CHANNELS 3 Zrotation Xrotation Yrotation
        JOINT rFoot
        {
          OFFSET 0.73152 -45.1104 -5.12064
          CHANNELS 3 Zrotation Xrotation Yrotation
          End Site
          {
            OFFSET -1.1221 -3.69964 12.103
          }
        }
      }
    }
  }
  JOINT lButtock
  {
    OFFSET 8.77824 4.35084 1.2192
    CHANNELS 3 Zrotation Xrotation Yrotation
    JOINT lThigh
    {
      OFFSET 0 -1.70687 -2.19456
      CHANNELS 3 Zrotation Xrotation Yrotation
      JOINT lShin
      {
        OFFSET 0 -36.8199 0.73152
        CHANNELS 3 Zrotation Xrotation Yrotation
        JOINT lFoot
        {
          OFFSET -0.73152 -45.1104 -5.12064
          CHANNELS 3 Zrotation Xrotation Yrotation
          End Site
          {
            OFFSET 1.1221 -3.69964 12.103
          }
        }
      }
    }
  }
}
MOTION
Frames:	4
Frame Time:	0.00833333
1.08789 84.7178 -178.539 0.0 0.0 0.0 -0.462529 -0.00207378 -0.0132009 -0.127532 -0.00315853 -0.0220953 1.31351e-14 -7.95139e-16 -1.36664e-16 3.93749e-14 3.18055e-15 -4.00675e-16 -0.0 0.0 0.0 -0.0 0.0 0.0 6.6085e-15 2.52363e-18 1.49089e-16 1.39562e-13 -1.18028e-16 1.98785e-16 2.3793e-12 -7.08866e-13 -2.8625e-14 2.72201e-11 7.21091e-13 -2.22639e-13 6.42068e-11 2.78314e-14 -5.40694e-13 1.10874e-10 4.77083e-14 -9.41444e-13 6.42134e-11 2.78299e-14 -5.53417e-13 7.73091 5.47488 0.417314 6.42069e-11 2.8128e-14 -5.37514e-13 2.90554 0.965183 0.102902 6.42111e-11 2.82274e-14 -5.39104e-13 10.2786 0.731801 0.0259123 6.42019e-11 3.02153e-14 -5.27972e-13 2.22167 -0.733487 -0.20892 6.51172e-15 2.32951e-18 -2.48481e-16 1.3604e-13 8.69683e-17 -1.39149e-15 2.37796e-12 7.14035e-13 -4.45278e-14 2.72183e-11 -6.95498e-13 -1.84472e-13 6.42065e-11 3.97836e-14 -5.27972e-13 1.10898e-10 6.67917e-14 -9.16795e-13 6.42027e-11 4.21423e-14 -5.1525e-13 -7.73091 5.47488 -0.417314 6.42066e-11 3.97569e-14 -5.37514e-13 -2.90554 0.965183 -0.102902 6.4201e-11 4.01545e-14 -5.35923e-13 -10.2786 0.731801 -0.0259123 6.42098e-11 4.29375e-14 -5.43875e-13 -2.22167 -0.733487 0.20892 -2.03217e-16 0.0 -3.88251e-19 0.17237 -2.4816 -0.0258955 -0.00786745 -1.0571 -0.0680521 -0.522457 3.53839 0.132387 2.03217e-16 0.0 3.88251e-19 -0.875843 -4.26242 0.0710579 0.00283233 2.1685 0.0189685 0.527717 2.09369 -0.103295
0.569211 84.1431 -179.61 -0.3139 -1.8697 0.1741 -1.47309 1.15895 -0.462209 0.812817 -0.899597 -0.156847 -1.89041 2.23828 -1.39063 1.32884 -3.4326 -2.36254 -0.0 0.0 0.0 -0.0 0.0 0.0 1.16289e-14 3.27823e-15 -7.11043e-15 23.431 -1.15669 -1.55721 -3.24191 -1.31821 5.2215 0.0021316 1.70753 0.240324 4.53048e-11 -6.64636e-11 -2.01294e-12 7.81321e-11 -1.14943e-10 -3.21241e-12 4.531e-11 -6.64624e-11 -2.02582e-12 7.73091 5.47488 0.417314 4.53053e-11 -6.64632e-11 -2.00976e-12 2.90554 0.965183 0.102902 4.53118e-11 -6.64631e-11 -2.01047e-12 10.2786 0.731801 0.0259123 4.53029e-11 -6.64614e-11 -2.00037e-12 2.22167 -0.733487 -0.20892 1.14767e-14 3.27878e-15 -7.47617e-15 -23.4959 1.7088 2.19207 6.58332 -3.68302 -9.42061 2.92941e-05 -0.137331 0.0193018 5.61749e-11 5.01621e-11 -2.01993e-11 9.71911e-11 8.68315e-11 -3.49135e-11 5.61725e-11 5.01642e-11 -2.01876e-11 -7.73091 5.47488 -0.417314 5.61758e-11 5.0162e-11 -2.02053e-11 -2.90554 0.965183 -0.102902 5.61698e-11 5.01623e-11 -2.02033e-11 -10.2786 0.731801 -0.0259123 5.61787e-11 5.01643e-11 -2.02106e-11 -2.22167 -0.733487 0.20892 -2.03217e-16 0.0 -3.88251e-19 -2.65462 -1.78118 -0.912972 -0.000102016 3.54695 0.0377751 -0.646417 -0.240261 -2.96916 2.03217e-16 0.0 3.88251e-19 1.19857 -2.40046 0.354887 -0.000270361 4.47605 -0.0277467 0.460548 -1.46019 1.56558
0.274481 84.1825 -179.441 -0.3403 -1.3119 0.0388 -2.52648 2.3932 -0.936392 1.80612 -1.84556 -0.299154 -3.76961 4.60565 -2.86636 2.43361 -7.05461 -4.88489 -0.0 0.0 0.0 -0.0 0.0 0.0 1.80494e-14 7.23104e-15 -1.53002e-14 48.1413 -2.24829 -3.18885 -6.44749 -2.69673 10.8151 -0.0134802 3.35398 0.473292 1.40596e-11 -1.44161e-10 -1.38302e-11 2.39025e-11 -2.49287e-10 -2.316e-11 1.40631e-11 -1.44158e-10 -1.38434e-11 7.73091 5.47488 0.417314 1.40604e-11 -1.4416e-10 -1.38271e-11 2.90554 0.965183 0.102902 1.40695e-11 -1.4416e-10 -1.38268e-11 10.2786 0.731801 0.0259123 1.40608e-11 -1.44159e-10 -1.38179e-11 2.22167 -0.733487 -0.20892 1.78386e-14 7.23239e-15 -1.56294e-14 -48.4706 3.50379 4.51537 12.237 -7.23905 -19.494 0.000203195 -0.261479 0.0367521 3.93261e-11 1.0949e-10 -4.68279e-11 6.8277e-11 1.89562e-10 -8.09555e-11 3.93255e-11 1.09492e-10 -4.68174e-11 -7.73091 5.47488 -0.417314 3.93278e-11 1.0949e-10 -4.68301e-11 -2.90554 0.965183 -0.102902 3.93216e-11 1.0949e-10 -4.68276e-11 -10.2786 0.731801 -0.0259123 3.93305e-11 1.09491e-10 -4.68341e-11 -2.22167 -0.733487 0.20892 -2.03217e-16 0.0 -3.88251e-19 -5.64554 -1.06103 -1.85388 -0.0105802 8.42992 0.151365 -1.21966 -4.214 -6.24517 2.03217e-16 0.0 3.88251e-19 3.35713 -0.432778 0.667574 0.000596004 6.91493 -0.0775982 0.615167 -5.22671 3.33833
-0.0316513 84.2231 -179.313 -0.4127 -0.8 -0.0042 -3.43954 3.48012 -1.36246 2.68085 -2.69241 -0.426764 -5.3437 6.69895 -4.19741 3.12806 -10.2272 -7.18972 -0.0 0.0 0.0 -0.0 0.0 0.0 2.16697e-14 9.82964e-15 -2.16295e-14 70.1042 -3.4598 -4.67924 -9.01357 -3.82347 15.6962 -0.0367235 5.12222 0.723541 7.50098e-12 -1.99447e-10 -4.95744e-12 1.26488e-11 -3.44924e-10 -7.75434e-12 7.50303e-12 -1.99443e-10 -4.97061e-12 7.73091 5.47488 0.417314 7.50209e-12 -1.99446e-10 -4.95425e-12 2.90554 0.965183 0.102902 7.51315e-12 -1.99446e-10 -4.95319e-12 10.2786 0.731801 0.0259123 7.50487e-12 -1.99445e-10 -4.94516e-12 2.22167 -0.733487 -0.20892 2.14066e-14 9.83167e-15 -2.19315e-14 -70.8803 5.09634 6.59949 16.236 -9.85586 -28.6642 0.000365473 -0.411994 0.0579067 4.01117e-11 1.50407e-10 -5.9542e-11 6.97782e-11 2.60361e-10 -1.02907e-10 4.01123e-11 1.50408e-10 -5.95324e-11 -7.73091 5.47488 -0.417314 4.01141e-11 1.50406e-10 -5.95409e-11 -2.90554 0.965183 -0.102902 4.01075e-11 1.50406e-10 -5.9538e-11 -10.2786 0.731801 -0.0259123 4.01166e-11 1.50407e-10 -5.9544e-11 -2.22167 -0.733487 0.20892 -2.03217e-16 0.0 -3.88251e-19 -8.24355 -0.380584 -2.68591 -0.0364798 12.7549 0.255494 -2.12386 -7.69824 -9.2558 2.03217e-16 0.0 3.88251e-19 5.29206 1.32315 0.922249 0.00493777 9.09113 -0.122434 0.951748 -8.53802 4.95672
